# xmcd
# 
# Track frame offsets:
#     150
#     7415
#     19530
#     30512
#     41752
#     50032
#     58990
#     79085
#     88432
#     105725
#     115475
#     123507
#     136727
#     146342
#     154522
#     163080
#     177040
# 
# Disc length: 2462
# 
# Revision: 9
# Processed by: cddbd v1.5.2PL0 Copyright (c) Steve Scherf et al.
# Submitted via: fre:ac v1.0.31
# 
DISCID=e9099c11
DTITLE=Janis Joplin - Janis
DYEAR=1975
DGENRE=Blues
TTITLE0=Trouble In Mind
TTITLE1=What Good Can Drinkin' Do
TTITLE2=Silver Threads And Golden Needles
TTITLE3=Mississippi River
TTITLE4=Stealin'
TTITLE5=No Reason For Livin'
TTITLE6=Black Mountain Blues
TTITLE7=Walk Right In
TTITLE8=River Jordan
TTITLE9=Mary Jane
TTITLE10=Kansas City Blues
TTITLE11=Daddy, Daddy, Daddy
TTITLE12=C.C. Rider
TTITLE13=San Francisco Bay Blues
TTITLE14=Winin' Boy
TTITLE15=Careless Love
TTITLE16=I'll Drown In My Own Tears
EXTD=
EXTT0=
EXTT1=
EXTT2=
EXTT3=
EXTT4=
EXTT5=
EXTT6=
EXTT7=
EXTT8=
EXTT9=
EXTT10=
EXTT11=
EXTT12=
EXTT13=
EXTT14=
EXTT15=
EXTT16=
PLAYORDER=
